<?xml version="1.0" encoding="iso-8859-1"?>
<!-- Uploaded to: SVG Repo, www.svgrepo.com, Generator: SVG Repo Mixer Tools -->
<svg fill="currentColor" height="800px" width="800px" version="1.1" id="Layer_1" xmlns="http://www.w3.org/2000/svg" xmlns:xlink="http://www.w3.org/1999/xlink" 
	 viewBox="0 0 512 512" xml:space="preserve">
<g>
	<g>
		<path d="M493.271,18.748C481.188,6.656,465.112,0,448.019,0s-33.169,6.656-45.252,18.748l-17.886,17.886
			c-13.474-6.767-43.221-12.416-86.716,31.113l-102.4,102.4c-5.001,5.001-5.001,13.099,0,18.099c2.5,2.5,5.777,3.746,9.054,3.746
			c3.277,0,6.554-1.246,9.054-3.746l102.4-102.4c21.367-21.385,37.419-27.776,47.65-28.254L44.358,377.148
			c-21.854,21.854-24.559,55.714-8.132,80.546L3.765,490.155c-5,5.001-5,13.099,0,18.099c2.5,2.5,5.777,3.746,9.054,3.746
			s6.554-1.246,9.054-3.746l32.461-32.461C64.71,482.68,76.87,486.4,89.619,486.4c17.092,0,33.169-6.656,45.252-18.748l358.4-358.4
			C518.223,84.301,518.223,43.699,493.271,18.748z M116.772,449.553c-7.501,7.501-17.331,11.247-27.153,11.247
			c-9.83,0-19.652-3.746-27.153-11.247c-14.993-14.993-14.993-39.313,0-54.306l4.062-4.062c0.427,0.623,0.691,1.323,1.237,1.869
			l51.2,51.2c0.555,0.546,1.246,0.811,1.869,1.237L116.772,449.553z M138.31,428.015c-0.427-0.623-0.691-1.323-1.237-1.869
			l-51.2-51.2c-0.555-0.546-1.246-0.811-1.869-1.237l212.932-212.932c0.418,0.623,0.683,1.323,1.229,1.877l51.2,51.2
			c0.555,0.546,1.246,0.811,1.869,1.237L138.31,428.015z M475.172,91.153L368.71,197.615c-0.427-0.623-0.691-1.323-1.237-1.869
			l-51.2-51.2c-0.555-0.546-1.246-0.811-1.869-1.237L420.866,36.847c7.492-7.501,17.323-11.247,27.153-11.247
			s19.652,3.746,27.153,11.247C490.165,51.84,490.165,76.16,475.172,91.153z"/>
	</g>
</g>
</svg>